<svg xmlns="http://www.w3.org/2000/svg" xmlns:xlink="http://www.w3.org/1999/xlink" width="450" height="450" viewBox="0 0 450 450">
  <defs>
    <clipPath id="clip-logo2">
      <rect width="450" height="450"/>
    </clipPath>
  </defs>
  <g id="logo2" clip-path="url(#clip-logo2)">
    <rect width="450" height="450" fill="#fff"/>
    <g id="logo_sqr2" transform="translate(-122.337 -144.096)">
      <circle id="Ellipse_276" data-name="Ellipse 276" cx="57.233" cy="57.233" r="57.233" transform="translate(295.286 215.143)" fill="#feb8b8"/>
      <path id="Path_1461" data-name="Path 1461" d="M640.773,239.476a66.1,66.1,0,0,0-37.6-28.745l-7.026,5.127V209.2a60.844,60.844,0,0,0-11.365-.662l-6.062,5.485v-5.029a65.468,65.468,0,0,0-45.163,26.864c-13.164,18.978-15.387,45.381-2.438,64.511,3.554-10.923,7.868-21.173,11.423-32.1a32.326,32.326,0,0,0,8.422.041l4.324-10.09,1.208,9.663c13.4-1.167,33.285-3.732,45.991-6.081l-1.235-7.414,7.393,6.16c3.893-.9,6.2-1.709,6.013-2.33,9.45,15.236,21.016,24.966,30.465,40.2C648.708,276.943,652.838,259.08,640.773,239.476Z" transform="translate(-234.798 -16.476)" fill="#2f2e41"/>
      <path id="Path_7" data-name="Path 7" d="M698.225,470.522c-1.968-11.841-4-23.908-9.5-34.574-3.617-6.986-9.358-13.644-17.1-15.026a16.541,16.541,0,0,1-4.452-1.031c-2.268-1.092-32.741-18.488-37.584-21.518-4.159-2.6-10.723-7.417-14.034-7.417-3.33-.073-16.1,2.9-65.938-1a180.009,180.009,0,0,0-24.286,11.94c-.16-.106-51.728,27.586-53.666,27.513-3.669-.154-7.079,2.195-9.183,5.153s-3.089,6.62-4.122,10.161c11.263,25.083,21.569,50.2,32.833,75.281a6.43,6.43,0,0,1,.815,3.089,7.543,7.543,0,0,1-1.4,3.089c-5.524,8.873-5.348,20.034-4.745,30.463s1.35,21.445-3.31,30.793c-1.267,2.566-2.916,4.915-4.122,7.482-2.824,5.813-3.844,24.4-2.195,30.648l206.626,5.92C678.421,619.281,698.225,470.522,698.225,470.522Z" transform="translate(-231.394 -60.349)" fill="#6c63ff"/>
      <path id="Path_1421" data-name="Path 1421" d="M436.229,548.611a36.491,36.491,0,0,0-.124,9l2.962,42.531c.278,4.009.552,8.007.928,12.006.71,7.76,1.772,15.458,3.089,23.145a4.123,4.123,0,0,0,4.225,4.009c13.036,2.758,26.505,2.648,39.81,1.9,20.3-1.133,72.242-3.277,75.416-7.4s1.324-10.79-2.813-14.123-72.681-11.46-72.681-11.46c.67-5.307,2.69-10.305,4.607-15.344,3.442-8.937,6.658-18.169,6.72-27.742s-3.545-19.64-11.388-25.125c-6.452-4.5-14.758-5.338-22.619-5.153-5.72.164-15.6-1.206-20.827,1.03C439.4,537.7,437,544.562,436.229,548.611Z" transform="translate(-227.121 -87.84)" fill="#fbbebe"/>
      <path id="Path_1430" data-name="Path 1430" d="M452.853,456.981a10.663,10.663,0,0,0-2.287,3.659,172.988,172.988,0,0,0-14.531,59.379,5.932,5.932,0,0,1-.669,2.875,12.573,12.573,0,0,1-1.515,1.639,5.689,5.689,0,0,0,.68,8.016q.14.119.288.228c1.7-3.2,5.771-4.246,9.389-4.524,17.323-1.37,34.244,6.689,51.619,6.081-1.226-4.236-2.989-8.306-3.989-12.593-4.421-19.035,6.606-39.758-.154-58.092-1.35-3.669-3.607-7.276-7.162-8.884a19.09,19.09,0,0,0-4.585-1.214c-4.391-.793-13.13-4.184-17.375-2.823-1.567.505-2.185,1.978-3.483,2.869C457.1,454.858,454.488,455.321,452.853,456.981Z" transform="translate(-226.48 -71.84)" fill="#6c63ff"/>
      <path id="Path_1421-2" data-name="Path 1421" d="M726.366,535.879c-5.225-2.237-15.108-.866-20.827-1.03-7.862-.185-16.168.65-22.619,5.153-7.843,5.485-11.449,15.551-11.388,25.125s3.277,18.805,6.719,27.743c1.917,5.039,3.937,10.037,4.606,15.344,0,0-68.543,8.127-72.68,11.46s-5.987,10-2.814,14.123,102.19,8.261,115.226,5.5a4.122,4.122,0,0,0,4.225-4.009c1.318-7.687,2.379-15.385,3.09-23.145.376-4,.65-8,.928-12.006l2.962-42.531a36.47,36.47,0,0,0-.124-9C732.9,544.562,730.5,537.7,726.366,535.879Z" transform="translate(-259.412 -87.84)" fill="#fbbebe"/>
      <path id="Path_1430-2" data-name="Path 1430" d="M726.062,453.6c-1.3-.89-1.916-2.363-3.483-2.869-4.245-1.36-12.984,2.03-17.375,2.824a19.072,19.072,0,0,0-4.586,1.214c-3.555,1.608-5.811,5.214-7.162,8.883-6.761,18.334,4.266,39.057-.154,58.092-1,4.287-2.763,8.357-3.989,12.593,17.375.608,34.3-7.451,51.619-6.081,3.618.278,7.689,1.324,9.388,4.524q.148-.109.289-.228a5.689,5.689,0,0,0,.68-8.017,12.628,12.628,0,0,1-1.515-1.638,5.936,5.936,0,0,1-.669-2.875,173,173,0,0,0-14.53-59.379,10.667,10.667,0,0,0-2.288-3.659C730.652,455.322,728.035,454.858,726.062,453.6Z" transform="translate(-275.294 -71.84)" fill="#6c63ff"/>
      <circle id="Ellipse_1" data-name="Ellipse 1" cx="15.447" cy="15.447" r="15.447" transform="translate(311.34 522.595)" fill="#fbbebe"/>
      <circle id="Ellipse_2" data-name="Ellipse 2" cx="15.447" cy="15.447" r="15.447" transform="translate(345.545 522.595)" fill="#fbbebe"/>
      <path id="Path_8" data-name="Path 8" d="M689.571,655.684H477.349A9.356,9.356,0,0,1,468,646.339V517.59a9.356,9.356,0,0,1,9.346-9.345H689.571a9.356,9.356,0,0,1,9.346,9.345V646.34A9.356,9.356,0,0,1,689.571,655.684Z" transform="translate(-239.924 -84.541)" fill="#3f3d56"/>
      <circle id="Ellipse_263" data-name="Ellipse 263" cx="6.183" cy="6.183" r="6.183" transform="translate(341.154 494.094)" fill="#fff"/>
      <path id="Path_9" data-name="Path 9" d="M373.409,449.724H0v21.868H22.087v5.083H351.331v-5.083h22.078Z" transform="translate(160.632 97.157)" fill="#f1f1f1"/>
    </g>
  </g>
</svg>
