<svg xmlns="http://www.w3.org/2000/svg" xmlns:xlink="http://www.w3.org/1999/xlink" width="450" height="450" viewBox="0 0 450 450">
  <defs>
    <clipPath id="clip-meme">
      <rect width="450" height="450"/>
    </clipPath>
  </defs>
  <g id="meme" clip-path="url(#clip-meme)">
    <rect width="450" height="450" fill="#fff"/>
    <g id="Group_5" data-name="Group 5" transform="translate(-401.916 -158.374)">
      <g id="Group_3" data-name="Group 3" transform="translate(507.873 228.448)">
        <path id="Path_2" data-name="Path 2" d="M805.652,606.076H592.785a6.419,6.419,0,0,1-6.412-6.412v-71.81a6.419,6.419,0,0,1,6.412-6.412H805.652a6.419,6.419,0,0,1,6.412,6.412v71.81a6.419,6.419,0,0,1-6.412,6.411Z" transform="translate(-586.373 -387.271)" fill="#f1f1f1"/>
        <rect id="Rectangle_2" data-name="Rectangle 2" width="56.422" height="6.412" transform="translate(33.341 153.406)" fill="#6c63ff"/>
        <circle id="Ellipse_4" data-name="Ellipse 4" cx="3.847" cy="3.847" r="3.847" transform="translate(160.291 153.406)" fill="#6c63ff"/>
        <circle id="Ellipse_5" data-name="Ellipse 5" cx="3.847" cy="3.847" r="3.847" transform="translate(173.115 153.406)" fill="#6c63ff"/>
        <circle id="Ellipse_6" data-name="Ellipse 6" cx="3.847" cy="3.847" r="3.847" transform="translate(185.938 153.406)" fill="#6c63ff"/>
        <path id="Path_3" data-name="Path 3" d="M805.652,719.13H592.785a6.419,6.419,0,0,1-6.412-6.412v-71.81a6.419,6.419,0,0,1,6.412-6.412H805.652a6.419,6.419,0,0,1,6.412,6.412v71.81a6.419,6.419,0,0,1-6.412,6.411Z" transform="translate(-586.373 -409.28)" fill="#f1f1f1"/>
        <rect id="Rectangle_3" data-name="Rectangle 3" width="56.422" height="6.412" transform="translate(33.341 244.451)" fill="#6c63ff"/>
        <circle id="Ellipse_7" data-name="Ellipse 7" cx="3.847" cy="3.847" r="3.847" transform="translate(160.291 244.451)" fill="#6c63ff"/>
        <circle id="Ellipse_8" data-name="Ellipse 8" cx="3.847" cy="3.847" r="3.847" transform="translate(173.115 244.451)" fill="#6c63ff"/>
        <circle id="Ellipse_9" data-name="Ellipse 9" cx="3.847" cy="3.847" r="3.847" transform="translate(185.938 244.451)" fill="#6c63ff"/>
        <g id="Group_2" data-name="Group 2" transform="translate(16.091)">
          <g id="Group_1" data-name="Group 1">
            <path id="Path_17" data-name="Path 17" d="M649.989,378.3l-8.279,15.631,12.869,5.516,8.279-17.467Z" transform="translate(-534.718 -196.325)" fill="#fda57d"/>
            <path id="Path_18" data-name="Path 18" d="M820.912,442.906l.918,3.68s16.549,11.951,12.885,14.713-38.656-14.713-38.656-14.713l11.951-9.2Z" transform="translate(-701.051 -239.784)" fill="#333"/>
            <path id="Path_19" data-name="Path 19" d="M662.788,383.831l-13.014-4.341L645.9,386.8l12.869,5.525Z" transform="translate(-535.534 -196.557)" opacity="0.1"/>
            <path id="Path_20" data-name="Path 20" d="M725,339.238l12.426,12.579,9.124-10.622L732.369,328.06Z" transform="translate(-550.933 -186.545)" fill="#fda57d"/>
            <path id="Path_21" data-name="Path 21" d="M733,328.82,725.63,340l4.711,4.776,9.559-9.559Z" transform="translate(-551.055 -186.693)" opacity="0.1"/>
            <path id="Path_22" data-name="Path 22" d="M918.8,381.978l3.785.225s16.364-12.2,17.894-7.868-25.609,32.43-25.609,32.43l-5.186-14.158Z" transform="translate(-723.17 -227.327)" fill="#333"/>
            <path id="Path_23" data-name="Path 23" d="M767.934,252.913l19.1-22.1a4.027,4.027,0,0,0-.306-5.565l-41.563-31.52-5.057,7.876,32.213,24.8-13.691,15Z" transform="translate(-690.159 -192.349)" fill="#fda57d"/>
            <path id="Path_24" data-name="Path 24" d="M770.324,243.31l-6.684,7.328,9.285,11.524,9.575-11.049a27.921,27.921,0,0,1-12.177-7.8Z" transform="translate(-694.74 -202.001)" opacity="0.1"/>
            <path id="Path_25" data-name="Path 25" d="M699.919,258.431,678.3,242.18a6.571,6.571,0,0,1-1.611-8.754l32.358-36.006,6.62,6.62-22.348,27.9L706.539,245.2Z" transform="translate(-675.674 -192.013)" fill="#fda57d"/>
            <path id="Path_26" data-name="Path 26" d="M700.12,264.565l3.535,2.658,6.62-13.231-8.311-8.311C702.141,248.5,702.641,259.435,700.12,264.565Z" transform="translate(-682.374 -202.462)" opacity="0.1"/>
            <path id="Path_27" data-name="Path 27" d="M662.071,311.652,642.22,371.2l19.851,6.62,33.083-66.165-26.463-6.612Z" transform="translate(-534.817 -182.063)"/>
            <path id="Path_28" data-name="Path 28" d="M665.491,313.932l-.991,2.98,20.842-2.98,8.142,10.179,5.09-10.179L672.1,307.32Z" transform="translate(-539.155 -182.507)" opacity="0.1"/>
            <path id="Path_29" data-name="Path 29" d="M717.07,196.031s8.48-10.928,14.915-3.576-10.139,8.271-10.139,8.271Z" transform="translate(-684.032 -189.912)" fill="#fda57d"/>
            <path id="Path_30" data-name="Path 30" d="M729.29,333.42l6.394,12.8a21.212,21.212,0,0,0,21.969,11.508l77.5-11.073,26.471,33.075,19.851-19.851-42.682-36.6a10.767,10.767,0,0,0-8.343-2.513Z" transform="translate(-688.053 -217.063)"/>
            <path id="Path_32" data-name="Path 32" d="M702.442,245.146s1.739,21.486-4.872,22.227l13.231,6.612,13.231,52.934s30.24-14.086,57.4-13.353,0-17.155,0-17.155l-15.558-39.306,3.68-5.516a27.646,27.646,0,0,1-12.885-8.279h0c-3.68,4.6-12.08,10.832-19.424,10.832h-3.165a60.194,60.194,0,0,1-31.677-9Z" transform="translate(-681.878 -202.001)" fill="#6c63ff"/>
            <path id="Path_33" data-name="Path 33" d="M725.26,238.066v7.385a14.116,14.116,0,0,0,4.131,9.977L745.1,271.141l5.235-10.469a13.118,13.118,0,0,0,1.385-5.871V238.05Z" transform="translate(-687.268 -200.977)" fill="#fda57d"/>
            <path id="Path_34" data-name="Path 34" d="M725.51,246.845v.805a19.843,19.843,0,0,0,26.439,0v-8.19H725.51Z" transform="translate(-687.317 -201.252)" opacity="0.1"/>
            <circle id="Ellipse_11" data-name="Ellipse 11" cx="19.851" cy="19.851" r="19.851" transform="translate(31.372 10.618)" fill="#fda57d"/>
            <path id="Path_36" data-name="Path 36" d="M722.154,216.276s36.7-6.978,35.675-13.484c-.76-3.445,1.139-4.5-2.592-6.367-2.347-1.12.73.09-4.8-1.819-.608-.405-1.836.24-4.1-.582-3.986-1.011-10.443-.011-14.43.582-.866.129-1.714.29-2.758.535-13.232,3.094-21.51,14.688-19.557,30.251.612,4.832,2.36,8.859,5.943,10.727C729.507,243.48,722.154,216.276,722.154,216.276Z" transform="translate(-684.162 -192.322)" fill="#333"/>
            <ellipse id="Ellipse_12" data-name="Ellipse 12" cx="1.836" cy="3.221" rx="1.836" ry="3.221" transform="translate(37.122 27.506)" fill="#fda57d"/>
            <path id="Path_37" data-name="Path 37" d="M544.67,240.632l.918-2.762,2.754,1.844Z" transform="translate(-515.827 -168.987)" opacity="0.1"/>
            <path id="Path_39" data-name="Path 39" d="M612.5,220.75l-.918,2.754-1.844-2.754Z" transform="translate(-528.494 -165.654)" opacity="0.1"/>
            <path id="Path_40" data-name="Path 40" d="M722.168,216.305l27.335-7.6h0c-.045-.521,3.368-.717-8.766-6.788-2.135-1.018,24.676-4.217,8.766-7.562h-1.015l-.776-.209c-.456-.058-.579-.05-1.5-.221-11.562-1.229-1.135,4.085-4.541,4.4-2.574.24-10.7-3.72-13.342-2.692-11.743,4.573-20.493,15.651-18.72,29.783.612,4.832,2.36,8.859,5.943,10.727a9.044,9.044,0,0,0,4.437,1.254c3.995-.04,4.494-5.483,4-11.06A67.269,67.269,0,0,0,722.168,216.305Z" transform="translate(-684.176 -192.351)" fill="#333"/>
          </g>
          <path id="Path_41" data-name="Path 41" d="M133.467.746l-.235-.174-.006,0a2.88,2.88,0,0,0-4.029.6L81.282,65.674H76.011V64.435a1.152,1.152,0,0,0-1.152-1.152H71.714a1.152,1.152,0,0,0-1.152,1.152v1.238h-1.82V64.435a1.152,1.152,0,0,0-1.152-1.152H64.445a1.152,1.152,0,0,0-1.152,1.152v1.238H61.478V64.435a1.152,1.152,0,0,0-1.152-1.152H57.181a1.152,1.152,0,0,0-1.152,1.152v1.238h-1.82V64.435a1.152,1.152,0,0,0-1.152-1.152H49.912a1.152,1.152,0,0,0-1.152,1.152v1.238H46.945V64.435a1.152,1.152,0,0,0-1.152-1.152H42.648A1.152,1.152,0,0,0,41.5,64.436v1.238h-1.82V64.435a1.152,1.152,0,0,0-1.152-1.152H35.379a1.152,1.152,0,0,0-1.152,1.152v1.238h-1.82V64.435a1.152,1.152,0,0,0-1.152-1.152H28.11a1.152,1.152,0,0,0-1.152,1.152v1.238H25.143V64.435a1.152,1.152,0,0,0-1.152-1.152H20.846a1.152,1.152,0,0,0-1.152,1.152v1.238h-1.82V64.435a1.152,1.152,0,0,0-1.152-1.152H13.577a1.152,1.152,0,0,0-1.152,1.152v1.238H10.61V64.435a1.152,1.152,0,0,0-1.152-1.152H6.313a1.152,1.152,0,0,0-1.152,1.152v1.238H2.88A2.88,2.88,0,0,0,0,68.554V71.3a2.88,2.88,0,0,0,2.88,2.88H80.8a4.292,4.292,0,0,0,4.2-3.42l.03.022,49.021-66,0-.006A2.88,2.88,0,0,0,133.467.746Z" transform="matrix(0.999, 0.035, -0.035, 0.999, 87.447, 33.552)" fill="#3f3d56"/>
        </g>
      </g>
      <path id="Path_42" data-name="Path 42" d="M581.583,298.628c25.17,9.075,13.869,13.356,13.869,13.356Z" transform="translate(-14.349 -13.662)" fill="none"/>
    </g>
  </g>
</svg>
